<?xml version="1.0" standalone="no"?>
<?xml-stylesheet type="text/css" href="../../style.css"?>
<!DOCTYPE svg PUBLIC "-//W3C//DTD SVG 20010904//EN"
 "http://www.w3.org/TR/2001/REC-SVG-20010904/DTD/svg10.dtd">
<svg version="1.0" xmlns="http://www.w3.org/2000/svg"
 width="758.000000pt" height="470.000000pt" viewBox="0 0 758.000000 470.000000"
 preserveAspectRatio="xMidYMid meet">

<g transform="translate(0.000000,470.000000) scale(0.100000,-0.100000)"
fill="#ff1818" stroke="none">
<path d="M970 3970 l0 -90 -90 0 -90 0 0 -95 0 -95 -95 0 -95 0 0 -505 0 -504
93 -3 92 -3 3 -222 c2 -175 0 -223 -10 -224 -7 -1 -49 -2 -93 -3 l-80 -1 -3
-692 -2 -693 95 0 95 0 0 -95 0 -95 688 2 687 3 3 92 3 92 92 3 92 3 3 93 3
93 77 -3 77 -3 3 -92 3 -93 89 0 89 0 3 -92 3 -93 315 0 315 0 3 92 3 92 92 3
92 3 3 93 3 93 77 -3 77 -3 3 -187 2 -188 1645 0 1645 0 0 785 c0 621 -3 785
-12 786 -7 0 -47 2 -88 2 l-75 2 -3 38 -3 37 90 0 91 0 0 320 0 320 -90 0 -90
0 0 240 0 240 90 0 90 0 0 320 0 320 -1180 0 -1180 0 0 -90 0 -90 -55 0 -55 0
0 90 0 90 -410 0 -410 0 0 -90 0 -90 -80 0 -80 0 -1 73 c-1 39 -2 79 -3 87 -1
13 -65 15 -503 18 l-503 2 0 -90 0 -90 -80 0 -80 0 -1 73 c-1 39 -1 80 0 90 2
16 -37 17 -693 17 l-696 0 0 -90z m1158 -227 l3 -93 -373 -2 -373 -3 -3 -92
-3 -93 -89 0 -90 0 0 -280 0 -280 90 0 89 0 3 -92 3 -93 185 0 185 0 3 188 2
187 -95 0 -96 0 3 93 3 92 275 0 275 0 3 -372 2 -373 -465 0 -465 0 0 95 0 95
-95 0 -95 0 0 90 0 90 -90 0 -90 0 0 280 0 280 90 0 89 0 3 93 3 92 93 3 92 3
0 88 c0 48 3 91 7 94 3 4 212 6 462 5 l456 -3 3 -92z m1170 0 l3 -92 92 -3 92
-3 3 -92 3 -93 89 0 90 0 0 -465 0 -465 -185 0 -185 0 0 185 0 185 -280 0
-280 0 0 -185 0 -185 -185 0 -185 0 0 465 0 464 93 3 92 3 3 93 3 92 89 0 90
0 0 88 c0 49 2 91 5 94 3 3 128 5 278 4 l272 -1 3 -92z m982 -4 l0 -89 95 0
95 0 0 -95 0 -96 93 3 92 3 3 93 3 92 89 0 90 0 0 89 0 89 73 4 c39 2 123 1
185 0 l112 -4 0 -649 0 -649 -182 2 -183 3 -3 278 -2 277 -90 0 -89 0 -3 -92
-3 -93 -90 0 -90 0 -3 93 -3 92 -94 0 -95 0 0 -280 0 -280 -182 2 -183 3 -3
647 -2 648 177 2 c98 2 181 2 186 0 4 -2 7 -43 7 -93z m2450 94 l30 -5 0 -89
0 -89 -465 0 -465 0 2 -185 3 -186 365 -2 365 -2 3 -92 3 -93 -371 0 -370 0 2
-187 3 -188 460 -2 460 -3 3 -90 3 -90 -651 0 -650 0 -1 268 c-1 553 2 1026 7
1034 6 9 1219 11 1264 1z m-2850 -1513 l0 -90 -85 0 -85 0 0 90 0 90 85 0 85
0 0 -90z m1568 3 l-3 -88 -85 0 -85 0 -3 88 -3 87 91 0 91 0 -3 -87z m-3158
-38 l0 -115 -110 0 -110 0 0 115 0 115 110 0 110 0 0 -115z m-352 -192 l3 -93
94 0 95 0 0 -465 0 -464 -92 -3 -93 -3 -3 -93 -3 -92 -464 0 -465 0 0 95 0 95
-90 0 -90 0 0 465 0 465 90 0 90 0 0 88 c0 49 3 92 7 96 4 3 212 5 462 4 l456
-3 3 -92z m800 -185 l2 -277 93 -3 92 -3 3 -93 3 -93 92 3 92 3 3 93 3 92 89
0 90 0 2 278 3 277 180 0 180 0 3 -372 2 -373 -90 0 -89 0 -3 -92 -3 -93 -92
-3 -93 -3 0 -89 0 -89 -92 -3 -93 -3 -3 -93 -3 -92 -89 0 -89 0 -3 92 -3 93
-92 3 -93 3 0 89 0 90 -90 0 -90 0 0 95 0 95 -95 0 -95 0 0 368 c0 203 3 372
7 376 4 3 86 5 182 4 l176 -3 3 -277z m2472 187 l0 -95 -465 0 -465 0 0 -185
0 -185 373 -2 372 -3 3 -92 3 -93 -376 0 -375 0 0 -185 0 -185 465 0 465 0 0
-95 0 -95 -647 2 -648 3 -3 640 c-1 352 0 646 3 653 3 9 143 12 650 12 l645 0
0 -95z m1360 0 l0 -95 95 0 95 0 0 -280 0 -280 -185 0 -185 0 0 -95 0 -95 90
0 90 0 0 -90 0 -89 93 -3 92 -3 3 -92 3 -93 -281 0 -280 0 0 95 0 95 -95 0
-95 0 0 90 0 90 -90 0 -90 0 -2 -182 -3 -183 -182 -3 -183 -2 -1 207 c-1 530
2 1087 7 1095 3 4 252 8 555 8 l549 0 0 -95z"/>
<path d="M2928 3558 l-3 -93 -92 -3 -93 -3 0 -184 0 -185 280 0 280 0 0 185 0
185 -90 0 -89 0 -3 93 -3 92 -92 3 -92 3 -3 -93z"/>
<path d="M1200 1535 l0 -465 280 0 280 0 0 465 0 465 -280 0 -280 0 0 -465z"/>
<path d="M5830 1720 l0 -280 185 0 184 0 3 93 3 92 93 3 92 3 0 184 0 185
-280 0 -280 0 0 -280z"/>
</g>
</svg>
