<?xml version="1.0" standalone="no"?>
<?xml-stylesheet type="text/css" href="../../style.css"?>
<!DOCTYPE svg PUBLIC "-//W3C//DTD SVG 20010904//EN"
 "http://www.w3.org/TR/2001/REC-SVG-20010904/DTD/svg10.dtd">
<svg version="1.0" xmlns="http://www.w3.org/2000/svg" class='main_container__alert_window__notification__svg'
 width="247.000000pt" height="182.000000pt" viewBox="0 0 247.000000 182.000000"
 preserveAspectRatio="xMidYMid meet">

<g transform="translate(0.000000,182.000000) scale(0.100000,-0.100000)"
fill="#0fff50" stroke="none">
<path d="M994 1557 l-55 -55 3 -257 c3 -241 4 -258 22 -271 16 -11 74 -14 298
-14 265 0 279 1 298 20 19 19 20 33 20 271 l0 250 -49 52 -50 52 -216 3 -217
3 -54 -54z m481 -192 l0 -220 -209 -3 c-115 -1 -213 1 -217 5 -10 10 -13 418
-4 433 4 7 80 9 218 8 l212 -3 0 -220z m-484 -302 l-30 -58 -1 248 0 248 28
25 27 26 3 -216 2 -216 -29 -57z m559 447 c7 -12 9 -106 8 -257 l-3 -238 -27
55 c-28 55 -28 56 -28 268 0 209 0 213 20 202 11 -6 24 -19 30 -30z m-46 -437
c13 -27 27 -58 30 -70 l7 -23 -280 0 c-155 0 -281 2 -281 4 0 2 14 33 30 70
l30 66 220 0 220 0 24 -47z"/>
<path d="M1218 1368 c-20 -35 -34 -66 -31 -70 2 -5 35 -8 73 -8 38 0 71 3 73
8 5 7 -64 131 -73 132 -3 0 -22 -28 -42 -62z"/>
<path d="M255 810 l-50 -51 -2 -237 c-2 -146 1 -249 8 -269 l11 -33 281 -1
c155 -1 289 -1 297 1 37 4 40 27 40 289 l0 255 -50 48 -50 48 -218 0 -218 0
-49 -50z m483 18 c5 -7 8 -24 7 -38 -2 -14 -4 -107 -4 -207 l-1 -183 -220 0
-220 0 0 213 c0 118 3 217 7 220 3 4 100 7 213 7 154 0 210 -3 218 -12z m-456
-235 l3 -208 -28 -57 c-15 -32 -29 -58 -32 -58 -3 0 -5 107 -5 239 0 226 1
240 21 265 11 14 25 26 30 26 5 0 10 -92 11 -207z m515 185 c23 -21 23 -23 23
-267 l-1 -246 -29 55 -29 55 -1 213 c0 116 3 212 7 212 4 0 17 -10 30 -22z
m-28 -464 c17 -36 31 -70 31 -75 0 -10 -543 -13 -552 -3 -3 3 8 36 25 75 l31
69 217 0 217 0 31 -66z"/>
<path d="M513 657 c-29 -18 -53 -35 -53 -39 0 -7 110 -78 122 -78 4 0 8 34 8
75 0 54 -4 75 -12 74 -7 0 -37 -15 -65 -32z"/>
<path d="M995 815 l-50 -44 -3 -255 c-2 -170 1 -262 8 -276 10 -19 20 -20 311
-20 l299 0 11 27 c6 16 9 123 7 276 l-3 249 -50 44 -50 44 -215 -1 -215 0 -50
-44z m483 -197 l2 -218 -220 0 c-203 0 -220 1 -221 18 -3 115 1 404 6 412 4 7
78 9 218 8 l212 -3 3 -217z m-458 -30 l0 -213 -29 -60 -29 -60 -1 249 c-1 243
0 250 21 273 12 13 25 23 30 23 4 0 8 -96 8 -212z m518 189 c22 -23 22 -28 20
-268 l-3 -244 -27 58 c-28 57 -28 59 -28 267 0 116 4 210 8 210 5 0 18 -11 30
-23z m-30 -463 c18 -36 30 -69 27 -75 -6 -9 -555 -14 -555 -4 0 3 14 36 31 75
l32 70 216 0 217 0 32 -66z"/>
<path d="M1194 682 c-8 -5 -1 -26 24 -69 20 -35 39 -63 42 -63 9 1 78 125 73
133 -6 9 -124 9 -139 -1z"/>
<path d="M1729 811 l-49 -48 0 -255 c0 -195 3 -258 13 -272 13 -17 34 -18 307
-17 223 1 296 4 302 14 10 15 10 528 0 543 -4 7 -27 28 -50 48 l-44 36 -215 0
-216 0 -48 -49z m489 -194 l2 -217 -222 2 -223 3 -3 195 c-1 107 0 205 3 218
l5 22 218 -2 217 -3 3 -218z m-490 -302 l-27 -60 0 249 c-1 246 -1 250 22 274
l22 24 5 -214 5 -213 -27 -60z m562 445 c7 -12 9 -106 8 -257 l-3 -238 -30 60
-30 60 3 208 c3 202 3 207 22 197 11 -6 24 -19 30 -30z m-42 -447 c17 -37 29
-70 26 -75 -7 -11 -554 -10 -554 1 0 5 14 39 31 75 l31 66 217 0 218 0 31 -67z"/>
<path d="M1930 619 c0 -43 3 -79 6 -79 11 0 124 71 124 78 0 4 -29 24 -65 44
l-65 37 0 -80z"/>
</g>
</svg>
